<?xml version="1.0" encoding="UTF-8"?>
<svg id="logo" xmlns="http://www.w3.org/2000/svg" viewBox="0 0 204 24">
  <path d="M14.9,22.11h4.29L12.38,4.29h-3.55L2,22.11h4.19l1.18-3.46h6.36l1.17,3.46ZM8.35,15.79l1.5-4.38.67-2.24h.09l.67,2.25,1.48,4.37h-4.41Z" style="fill: #1b1464;"/>
  <path d="M28.16,19.43c-.17.03-.34.04-.5.04-.51,0-.89-.15-1.15-.45-.26-.3-.39-.76-.39-1.37v-5.39h3.05v-2.94h-3.05v-3.48h-3.88v3.48h-1.9v2.94h1.9v5.91c0,1.46.39,2.55,1.17,3.29.78.73,1.87,1.1,3.26,1.1.41,0,.77-.02,1.08-.07s.79-.16,1.44-.36v-3c-.52.17-.87.28-1.04.31Z" style="fill: #1b1464;"/>
  <path d="M54.01,22.11v-12.79h3.72v2.3l-.32-.45h.41c.36-.67.91-1.22,1.66-1.65.75-.43,1.56-.64,2.44-.64s1.69.21,2.39.62c.7.41,1.2.98,1.51,1.71.51-.8,1.15-1.38,1.91-1.76.76-.38,1.58-.57,2.47-.57,1.54,0,2.71.44,3.49,1.32.78.88,1.18,2.12,1.18,3.71v8.19h-3.87v-7.48c0-.86-.18-1.5-.54-1.92-.36-.43-.9-.64-1.62-.64s-1.29.28-1.75.83-.69,1.25-.69,2.08v7.13h-3.89v-7.46c0-.86-.18-1.51-.54-1.94-.36-.43-.9-.65-1.61-.65s-1.29.28-1.74.85c-.46.56-.68,1.27-.68,2.1v7.1h-3.89Z" style="fill: #1b1464;"/>
  <path d="M80.22,7.31c-.62,0-1.13-.21-1.56-.63-.42-.42-.63-.94-.63-1.55s.21-1.14.63-1.54c.42-.41.94-.61,1.56-.61s1.15.2,1.57.61c.41.41.62.92.62,1.54s-.21,1.13-.62,1.55-.94.63-1.57.63ZM78.27,22.11v-12.79h3.89v12.79h-3.89Z" style="fill: #1b1464;"/>
  <path d="M90.71,22.54c-.9,0-1.69-.09-2.37-.27-.68-.18-1.28-.45-1.82-.79-.53-.34-1.16-.93-1.87-1.76l2.31-1.94c.51.58.93.98,1.28,1.21.35.22.73.39,1.16.51.42.12.92.17,1.48.17.61,0,1.09-.1,1.44-.31.35-.21.52-.51.52-.91,0-.33-.16-.6-.48-.79-.32-.19-1.13-.44-2.44-.74-1.64-.37-2.83-.89-3.56-1.56-.74-.66-1.1-1.5-1.1-2.5,0-1.22.51-2.19,1.52-2.9,1.02-.72,2.3-1.08,3.86-1.08.77,0,1.48.07,2.12.22.64.15,1.2.37,1.69.65.49.28,1.07.75,1.74,1.42l-2.2,1.93c-.44-.41-.82-.71-1.15-.88-.33-.17-.68-.3-1.06-.38-.38-.08-.76-.12-1.15-.12-.54,0-.97.1-1.3.3-.33.2-.49.45-.49.75s.15.55.46.75c.31.2,1.12.46,2.45.77,1.64.37,2.84.89,3.58,1.54.75.66,1.12,1.48,1.12,2.46,0,1.27-.52,2.29-1.57,3.08-1.04.78-2.44,1.18-4.18,1.18Z" style="fill: #1b1464;"/>
  <path d="M105.84,19.43c-.17.03-.34.04-.5.04-.51,0-.89-.15-1.15-.45-.26-.3-.39-.76-.39-1.37v-5.39h3.05v-2.94h-3.05v-3.48h-3.88v3.48h-1.9v2.94h1.9v5.91c0,1.46.39,2.55,1.17,3.29.78.73,1.87,1.1,3.26,1.1.41,0,.77-.02,1.08-.07s.79-.16,1.44-.36v-3c-.52.17-.87.28-1.04.31Z" style="fill: #1b1464;"/>
  <path d="M111.85,7.31c-.62,0-1.13-.21-1.56-.63-.42-.42-.63-.94-.63-1.55s.21-1.14.63-1.54c.42-.41.94-.61,1.56-.61s1.15.2,1.57.61c.41.41.62.92.62,1.54s-.21,1.13-.62,1.55-.94.63-1.57.63ZM109.9,22.11v-12.79h3.89v12.79h-3.89Z" style="fill: #1b1464;"/>
  <path d="M123.4,22.54c-1.98,0-3.62-.64-4.9-1.92-1.29-1.28-1.93-2.92-1.93-4.91s.64-3.66,1.92-4.93c1.28-1.27,2.92-1.9,4.94-1.9.93,0,1.77.13,2.51.39.75.26,1.42.66,2.03,1.21.6.55,1.12,1.33,1.56,2.34l-3.22,1.23c-.25-.51-.5-.9-.75-1.16-.25-.26-.54-.45-.88-.57s-.72-.19-1.13-.19c-.88,0-1.63.33-2.25.99-.62.66-.93,1.52-.93,2.57s.31,1.93.92,2.59,1.36,1,2.24,1c.41,0,.8-.07,1.16-.2.36-.13.66-.32.9-.55.24-.24.51-.62.79-1.16l3.26.99c-.43,1.08-.93,1.89-1.5,2.45s-1.25.98-2.04,1.28c-.79.3-1.69.45-2.68.45Z" style="fill: #1b1464;"/>
  <path d="M137.93,22.54c-1.09,0-2.05-.17-2.9-.5-.85-.33-1.57-.8-2.15-1.39-.58-.6-1.17-1.57-1.76-2.91l3.36-1.38c.37.84.72,1.43,1.03,1.78.32.35.69.62,1.13.81.44.19.93.29,1.48.29.79,0,1.43-.2,1.93-.58.5-.39.75-.91.75-1.56,0-.61-.33-1.12-1-1.53-.67-.41-1.69-.83-3.05-1.28-1.66-.56-2.91-1.25-3.75-2.1-.84-.84-1.26-1.91-1.26-3.19,0-1.48.58-2.7,1.75-3.68s2.67-1.46,4.52-1.46c.97,0,1.84.14,2.61.41.77.27,1.43.67,1.99,1.18.55.51,1.08,1.27,1.58,2.28l-3.26,1.34c-.28-.51-.56-.9-.84-1.16s-.6-.45-.98-.59c-.37-.14-.79-.21-1.24-.21-.68,0-1.23.15-1.66.47s-.64.72-.64,1.23.22.9.65,1.23c.43.33,1.46.75,3.09,1.27,1.84.56,3.19,1.31,4.06,2.27.86.96,1.29,2.09,1.29,3.39,0,1.67-.63,3.01-1.88,4.04-1.25,1.03-2.87,1.54-4.84,1.54Z" style="fill: #1b1464;"/>
  <polygon points="155.98 22.11 160.63 22.11 155.64 14.2 160.56 9.32 155.71 9.32 151.2 14.07 151.2 4.29 147.31 4.29 147.31 22.11 151.2 22.11 151.2 18.6 152.91 16.9 155.98 22.11" style="fill: #1b1464;"/>
  <path d="M196.25,22.54c-.9,0-1.69-.09-2.37-.27-.68-.18-1.28-.45-1.82-.79-.53-.34-1.16-.93-1.87-1.76l2.31-1.94c.51.58.93.98,1.28,1.21.35.22.73.39,1.16.51.42.12.92.17,1.48.17.61,0,1.09-.1,1.44-.31.35-.21.52-.51.52-.91,0-.33-.16-.6-.48-.79-.32-.19-1.13-.44-2.44-.74-1.64-.37-2.83-.89-3.56-1.56-.74-.66-1.1-1.5-1.1-2.5,0-1.22.51-2.19,1.52-2.9,1.02-.72,2.3-1.08,3.86-1.08.77,0,1.48.07,2.12.22.64.15,1.2.37,1.69.65.49.28,1.07.75,1.74,1.42l-2.2,1.93c-.44-.41-.82-.71-1.15-.88-.33-.17-.68-.3-1.06-.38-.38-.08-.76-.12-1.15-.12-.54,0-.97.1-1.3.3-.33.2-.49.45-.49.75s.15.55.46.75c.31.2,1.12.46,2.45.77,1.64.37,2.84.89,3.58,1.54.75.66,1.12,1.48,1.12,2.46,0,1.27-.52,2.29-1.57,3.08-1.04.78-2.44,1.18-4.18,1.18Z" style="fill: #1b1464;"/>
  <g>
    <circle cx="41.38" cy="13.2" r="4.29" style="fill: #816cff;"/>
    <path d="M48.64,12.45c.21.07.41.13.64.14h0c-.23,0-.44-.07-.64-.14Z" style="fill: #816cff;"/>
    <path d="M50.9,8.85c.4.4.64.95.64,1.55,0,.73-.38,1.34-.92,1.74h0c.55-.4.92-1.01.92-1.74,0-.61-.25-1.16-.64-1.55Z" style="fill: #816cff;"/>
    <path d="M49.34,12.6s-.04-.01-.06-.01h0s.04.01.06.01c.49,0,.91-.19,1.27-.46h0c-.36.27-.79.45-1.27.45Z" style="fill: #816cff;"/>
    <path d="M49.33,13.37c-.04,1.8-.7,3.43-1.74,4.75.37.31.66.69.84,1.15,1.41-1.64,2.3-3.74,2.3-6.07,0-.07-.02-.13-.02-.19-.41.22-.86.37-1.36.37,0,0-.01,0-.02,0Z" style="fill: #816cff;"/>
    <path d="M41.38,21.16c-3.41,0-6.3-2.17-7.44-5.18-.31.11-.62.19-.96.19-.16,0-.29-.07-.44-.09,1.22,3.74,4.7,6.46,8.84,6.46.72,0,1.41-.1,2.08-.25-.32-.36-.52-.79-.63-1.27-.47.09-.95.15-1.45.15Z" style="fill: #816cff;"/>
    <path d="M33.95,10.42c1.13-3.02,4.03-5.18,7.44-5.18,2.46,0,4.64,1.15,6.1,2.91.37-.3.81-.5,1.29-.6-1.71-2.23-4.37-3.69-7.39-3.69-4.14,0-7.62,2.72-8.84,6.46.15-.02.29-.09.44-.09.34,0,.66.09.96.19Z" style="fill: #816cff;"/>
    <path d="M49.34,12.6c.49,0,.91-.19,1.27-.46.55-.4.92-1.01.92-1.74,0-.61-.25-1.16-.64-1.55s-.95-.64-1.55-.64c-1.21,0-2.2.98-2.2,2.2,0,.61.25,1.16.64,1.55.23.23.53.38.85.49.21.07.41.13.64.14.02,0,.04.01.06.01Z" style="fill: #816cff;"/>
    <path d="M45.67,18.15c-.91,0-1.69.55-2.02,1.34-.11.26-.17.55-.17.85s.06.59.17.85c.33.79,1.11,1.34,2.02,1.34,1.21,0,2.2-.98,2.2-2.2s-.98-2.2-2.2-2.2Z" style="fill: #816cff;"/>
    <circle cx="32.98" cy="13.2" r="2.2" style="fill: #816cff;"/>
  </g>
  <path d="M175.76,15.63V7.14c.83-.56,1.42-1.47,1.42-2.55,0-1.73-1.4-3.13-3.13-3.13s-3.13,1.4-3.13,3.13c0,1.08.58,1.99,1.42,2.55v9.53l2.57,2.74v2.71h3.53v-3.78l-2.68-2.71Z" style="fill: #816cff;"/>
  <path d="M184.7,12.92v-5.78c.84-.56,1.42-1.47,1.42-2.55,0-1.73-1.4-3.13-3.13-3.13s-3.13,1.4-3.13,3.13c0,1.08.58,1.99,1.42,2.55v6.82l2.85,2.59v5.57h3.52v-6.58l-2.95-2.62Z" style="fill: #816cff;"/>
  <g>
    <circle cx="165.56" cy="7.92" r="1.66" style="fill: none;"/>
    <path d="M167.32,18.2v-7.65c.86-.58,1.46-1.51,1.46-2.63,0-1.78-1.44-3.22-3.22-3.22s-3.22,1.44-3.22,3.22c0,1.15.64,2.12,1.56,2.69v8.63l2.1,2.88h4.29l-2.97-3.92ZM165.56,6.25c.92,0,1.66.75,1.66,1.66s-.75,1.66-1.66,1.66-1.66-.75-1.66-1.66.75-1.66,1.66-1.66Z" style="fill: #816cff;"/>
  </g>
</svg>
